<?xml version="1.0" standalone="no"?><!DOCTYPE svg PUBLIC "-//W3C//DTD SVG 1.1//EN" "http://www.w3.org/Graphics/SVG/1.1/DTD/svg11.dtd"><svg t="1617431785447" class="icon" viewBox="0 0 1024 1024" version="1.1" xmlns="http://www.w3.org/2000/svg" p-id="1290" xmlns:xlink="http://www.w3.org/1999/xlink" width="200" height="200"><defs><style type="text/css"></style></defs><path d="M880.37 960H143.63c-11 0-20-9-20-20s9-20 20-20h736.74c11 0 20 9 20 20s-9 20-20 20zM880.74 225.78L736.73 81.77c-23.7-23.7-62.48-23.7-86.17-0.01L169.18 563.14c-4.67 4.67-4.67 12.3 0 16.97l23.35 23.35c-0.59-3.69 0.52-7.62 3.34-10.44l478.37-478.37c12.61-12.61 33.26-12.61 45.87 0.01L846.8 241.34c12.69 12.69 12.69 33.47 0 46.16L368.58 765.72c-2.83 2.83-6.75 3.94-10.44 3.34l23.35 23.35c4.67 4.67 12.3 4.67 16.97 0l482.29-482.29c23.18-23.19 23.18-61.14-0.01-84.34z" fill="#333333" p-id="1291"></path><path d="M399.59 786.94l-26.33-26.33-2.31 2.31c-2.06 2.06-4.69 3.2-7.39 3.44a10.96 10.96 0 0 1-5.49 1.47c-0.02-0.01-0.04 0-0.07 0l-177.1 25.79c-3.65 0.78-7.55-0.17-10.2-2.81-0.2-0.2-0.4-0.41-0.59-0.63-2.23-2.6-2.95-6.17-2.23-9.52l25.8-177.16c0.01-0.02 0.01-0.05 0.01-0.06 0-1.87 0.47-3.63 1.3-5.18 0.15-2.85 1.31-5.66 3.48-7.83l2.31-2.31-26.2-26.2c-6.17 0-11.21 5.05-11.21 11.21L126.01 822.9c-0.3 2.02-0.15 4.11 0.65 5.98 1.15 2.7 3.32 4.86 6.02 6 1.85 0.77 3.9 0.93 5.87 0.64l249.82-37.36c6.18 0 11.23-5.05 11.22-11.22zM778.71 380.62L595.57 197.48c-4.67-4.67-4.67-12.3 0-16.97l11.31-11.31c4.67-4.67 12.3-4.67 16.97 0l183.14 183.14c4.67 4.67 4.67 12.3 0 16.97l-11.31 11.31c-4.67 4.67-12.31 4.67-16.97 0z" fill="#333333" p-id="1292"></path><path d="M180.61 582.03l7.29-14.24c3.01-5.87 10.28-8.22 16.15-5.21l124.23 63.64c5.87 3.01 8.22 10.28 5.21 16.15l-7.29 14.24c-3.01 5.87-10.28 8.22-16.15 5.21l-124.23-63.64c-5.87-3-8.22-10.27-5.21-16.15z" fill="#333333" p-id="1293"></path><path d="M380.01 781.44l14.24-7.29c5.87-3.01 8.22-10.28 5.21-16.15l-63.64-124.23c-3.01-5.87-10.28-8.22-16.15-5.21l-14.24 7.29c-5.87 3.01-8.22 10.28-5.21 16.15l63.64 124.23c3.01 5.87 10.28 8.21 16.15 5.21z" fill="#333333" p-id="1294"></path></svg>